<?xml version="1.0" encoding="UTF-8" standalone="no"?>
<!-- Created with Inkscape (http://www.inkscape.org/) -->

<svg
   xmlns:dc="http://purl.org/dc/elements/1.1/"
   xmlns:cc="http://creativecommons.org/ns#"
   xmlns:rdf="http://www.w3.org/1999/02/22-rdf-syntax-ns#"
   xmlns:svg="http://www.w3.org/2000/svg"
   xmlns="http://www.w3.org/2000/svg"
   version="1.1"
   width="750"
   height="750"
   id="svg2">
  <defs
     id="defs4" />
  <metadata
     id="metadata7">
    <rdf:RDF>
      <cc:Work
         rdf:about="">
        <dc:format>image/svg+xml</dc:format>
        <dc:type
           rdf:resource="http://purl.org/dc/dcmitype/StillImage" />
        <dc:title></dc:title>
      </cc:Work>
    </rdf:RDF>
  </metadata>
  <g
     transform="translate(0,-302.36205)"
     id="layer1">
    <g
       transform="matrix(0.20759666,0,0,0.20759666,49.153473,572.02634)"
       id="g3008"
       style="fill:#008000;fill-opacity:1">
      <path
         d="m 1371.7351,2204.3381 c -0.3485,-0.9082 -0.3362,-47.0086 0.027,-102.4454 0.4448,-67.8209 0.3289,-100.9994 -0.3541,-101.4216 -0.5583,-0.345 -9.8211,-1.9437 -20.584,-3.5525 -93.0867,-13.9147 -177.4233,-34.2975 -265.3947,-64.1413 -21.1984,-7.1915 -63.2661,-22.7471 -80.1293,-29.63 -5.2961,-2.1616 -10.08393,-3.6451 -10.63943,-3.2966 -0.5555,0.3485 -4.9494,8.0586 -9.7643,17.1336 -4.8148,9.075 -12.3498,23.025 -16.7444,31 -11.6672,21.1727 -72.7879,127.273 -74.1995,128.8039 -0.9707,1.0527 -34.0459,-17.6217 -171.6127,-96.8928 -93.7257,-54.0083 -171.01969,-98.7579 -171.76437,-99.4436 -1.11968,-1.0311 3.62265,-9.8744 27.40688,-51.1072 33.10149,-57.3854 49.30699,-84.7539 64.63629,-109.1611 5.9763,-9.5154 10.6126,-17.7108 10.3029,-18.2119 -0.3097,-0.5012 -5.3846,-4.6398 -11.2776,-9.1971 -42.1969,-32.6322 -83.84106,-69.488 -129.07619,-114.2347 -49.01991,-48.4907 -90.95149,-95.2506 -127.61814,-142.3132 -4.38891,-5.6333 -8.61289,-10.2423 -9.38663,-10.2423 -0.77373,0 -10.6828,5.7829 -22.02016,12.8508 -25.06936,15.6288 -45.3998,27.6309 -106.93726,63.1301 -40.13151,23.1508 -47.52788,27.0886 -48.66615,25.9095 C 195.26335,1525.1028 0.30737173,1186.7451 0.74367173,1185.6301 1.6566717,1183.2974 142.54647,1102.9856 169.27547,1089.5616 c 5.0346,-2.5286 9.1538,-5.1714 9.1538,-5.8729 0,-0.7016 -2.5269,-7.5595 -5.6152,-15.24 -43.8955,-109.16389 -78.023498,-236.31349 -92.993598,-346.46439 -0.9343,-6.875 -2.1346,-13.0625 -2.6673,-13.75 -0.7635,-0.9855 -22.5154,-1.25 -102.787,-1.25 -56.0002,0 -102.040702,-0.3593 -102.312102,-0.7985 -0.2714,-0.4392 -0.586,-89.5862 -0.699,-198.1045 -0.1744,-167.4825 0,-197.4515 1.1845,-198.2692 0.8844,-0.6129 38.214402,-0.7228 102.629302,-0.3022 l 101.2392,0.661 0.8686,-2.3433 c 0.4778,-1.2888 1.1739,-4.8183 1.547,-7.8433 1.6373,-13.2744 8.1073,-52.4243 12.2293,-74 17.922498,-93.8098 46.016098,-189.983899 80.831398,-276.713899 3.1382,-7.8177 5.5512,-15.0162 5.3624,-15.9968 -0.2212,-1.1484 -6.5658,-5.0959 -17.8303,-11.0935 -30.9559,-16.482 -141.851498,-79.514501 -156.2505983,-88.812101 l -3.76359997,-2.4302 1.64189997,-3.1751 c 1.5712,-3.0383 179.8214383,-312.38104 191.0380183,-331.53512 l 5.42071,-9.25672 3.21334,1.64825 c 5.16221,2.6479 98.45875,56.62019 118.71333,68.67599 10.175,6.0563 26.3279,15.9281 35.89533,21.9375 9.56743,6.0093 17.95784,11.1419 18.64535,11.4057 0.7303,0.2802 8.51574,-8.5911 18.72547,-21.3372 73.82406,-92.16391 156.38403,-174.30711 245.48385,-244.24462 7.2875,-5.72021 13.25,-11.01691 13.25,-11.77046 0,-0.75355 -6.2295,-11.3672 -13.8434,-23.5859 -16.5436,-26.54902 -22.1781,-36.08278 -60.11459,-101.71582 -19.13718,-33.10876 -28.90581,-50.93932 -28.36575,-51.77567 1.10476,-1.71085 341.42204,-198.35824 342.59904,-197.96594 1.8679,0.6227 70.9564,121.34613 90.7027,158.49161 5.6282,10.5875 10.8211,19.25 11.5398,19.25 0.7186,0 10.00863,-3.42935 20.64443,-7.62077 111.8286,-44.07016 231.0722,-75.63126 346.3378,-91.66785 l 9,-1.25215 0.5,-102.97964 0.5,-102.9796 198.25,-0.2525 198.25,-0.2524 0,102.38 c 0,80.71 0.2646,102.58931 1.25,103.36883 0.6875,0.54384 5.525,1.51474 10.75,2.15756 28.3987,3.49379 85.8203,14.00661 124,22.70208 75.055,17.09387 156.8641,42.61341 225.8599,70.45476 7.898,3.187 14.873,5.59636 15.5,5.35413 0.6271,-0.24223 3.0377,-4.14663 5.3569,-8.67644 18.177,-35.5022 94.1691,-168.05112 96.6317,-168.54942 2.3645,-0.4785 342.6242,196.00292 342.6391,197.85543 0.01,0.8481 -13.7169,25.32112 -30.4971,54.38447 -34.9406,60.51711 -41.8193,72.13744 -59.6837,100.82542 -7.1073,11.41355 -12.6471,21.19741 -12.3106,21.74192 0.3365,0.5445 10.375,8.80565 22.3078,18.35811 87.5513,70.08674 166.8456,149.38406 236.8945,236.90346 15.7131,19.632 17.6075,21.6512 19.4088,20.6872 1.0979,-0.5876 10.8604,-6.5988 21.6944,-13.3582 41.6225,-25.9686 152.973,-90.21436 154.2016,-88.96958 1.7367,1.75951 197.2656,340.68548 197.3797,342.13388 0.1747,2.2197 -120.1113,71.568501 -162.133,93.475101 -11.0589,5.7651 -15.25,8.4438 -15.25,9.7468 0,0.9883 1.8504,6.2367 4.1121,11.6631 14.3414,34.4102 38.243,103.6249 50.3712,145.8663 19.9593,69.516099 34.0728,135.165799 44.2864,205.999999 l 1.7303,12 103,0.5 103,0.5 0,198.5 0,198.5 -102,0 c -56.1,0 -102.5032,0.3274 -103.1183,0.7276 -0.6151,0.4002 -1.4213,3.5502 -1.7915,7 -1.2482,11.6291 -7.6921,51.1057 -12.2055,74.7724 -17.9095,93.9123 -46.3663,191.4441 -81.0628,277.83129 -3.6878,9.1819 -6.179,16.7043 -5.6906,17.1834 0.4778,0.4687 7.8437,4.5354 16.3687,9.0371 27.1199,14.3212 45.1209,24.4256 103.8289,58.2816 49.7217,28.6738 57.2729,33.3331 56.9071,35.1137 -0.3937,1.9163 -194.9497,340.0116 -196.7639,341.9321 -1.2048,1.2755 -112.4565,-63.0165 -155.5159,-89.8722 l -21.9184,-13.6703 -3.0189,3.4024 c -1.6604,1.8713 -9.6096,11.6956 -17.6648,21.8316 -34.0272,42.8173 -64.3718,76.5542 -109.2965,121.5155 -46.6444,46.6824 -79.9834,76.7356 -123.3894,111.2285 -10.1639,8.0769 -19.8315,15.8494 -21.4834,17.2723 l -3.0035,2.587 10.3433,16.413 c 16.2915,25.8516 27.9195,45.4416 62.193,104.7786 26.4057,45.7155 31.7446,55.5832 30.6311,56.6136 -2.9472,2.727 -341.3189,197.5544 -342.3925,197.1424 -0.6327,-0.2428 -15.1141,-24.6695 -32.181,-54.2815 -38.6238,-67.0145 -41.3152,-71.787 -55.7396,-98.8401 -6.4516,-12.1 -12.3368,-22.6344 -13.0783,-23.4097 -1.1573,-1.2102 -2.0986,-1.115 -6.6527,0.673 -49.7032,19.5139 -85.7656,32.4761 -119.8046,43.0625 -75.6652,23.5325 -154.9357,41.8369 -226,52.1858 -11.825,1.722 -22.175,3.4854 -23,3.9186 -1.3134,0.6896 -1.5622,13.5235 -2,103.1787 l -0.5,102.3911 -198.2804,0.2525 c -183.5375,0.2337 -198.3276,0.1297 -198.9141,-1.3987 z m 261.6945,-275.395 c 108.9102,-4.6676 220.2732,-22.7498 327,-53.0956 199.1811,-56.6334 388.7492,-159.5689 544,-295.3921 36.4879,-31.9219 99.8136,-93.3456 98.4728,-95.5151 -0.3752,-0.607 -377.6403,-0.956 -1033.5318,-0.956 -825.68553,0 -1032.94129,0.2508 -1032.94231,1.25 -0.002,1.7287 52.7561,53.9557 73.54078,72.8007 117.6606,106.6803 246.7156,190.6375 388.2672,252.5887 200.62383,87.8046 415.08383,127.7527 635.19333,118.3194 z m 3.8999,-13.0193 c -0.5362,-0.3322 -0.8019,-83.6356 -0.6523,-204.5 l 0.2524,-203.9395 16.5,0 16.5,0 0.2524,203.2135 c 0.2395,192.7684 0.1624,203.2617 -1.5,204.1498 -1.9158,1.0235 -29.8877,1.9837 -31.3525,1.0762 z m -118.3999,-3.4194 c -13.7873,-3.0351 -24.9355,-9.2718 -37.0184,-20.7092 -4.7308,-4.4782 -9.2825,-9.459 -10.1149,-11.0686 -3.7553,-7.262 -4.515,-67.2221 -0.8667,-68.4111 0.55,-0.1793 2.8,2.9107 5,6.8667 11.5685,20.8019 26.5406,35.7501 41,40.9343 8.1115,2.9083 19.3035,2.933 25.8054,0.057 16.9564,-7.5006 27.3172,-30.3251 24.675,-54.3582 -3.1335,-28.5027 -12.0513,-43.7141 -47.2195,-80.5438 -21.1596,-22.1591 -29.9256,-33.659 -38.1561,-50.0556 -5.1793,-10.3179 -7.3765,-16.2275 -10.0969,-27.1564 -8.6955,-34.9322 -3.9115,-79.2337 11.5141,-106.6238 6.3813,-11.3308 18.2206,-23.0551 28.018,-27.7456 23.5695,-11.2841 46.1841,-7.7103 68.0954,10.7612 4.615,3.8906 8.1356,7.7414 8.8998,9.7349 0.8282,2.1602 1.4027,10.8891 1.665,25.2982 0.4214,23.1532 -0.3549,34 -2.4333,34 -0.6736,0 -4.1399,-3.6867 -7.7029,-8.1927 -7.7472,-9.7973 -17.681,-18.2548 -26.564,-22.616 -6.1125,-3.001 -7.1558,-3.1913 -17.5,-3.1913 -12.8205,0 -16.0961,1.254 -24.0485,9.2064 -9.5953,9.5953 -14.3083,25.7711 -12.4281,42.6551 2.623,23.5545 10.3303,36.8657 35.9906,62.1587 27.8925,27.4934 39.8994,42.6278 48.9981,61.761 16.9752,35.6967 19.7312,86.2187 6.826,125.1353 -13.2548,39.9711 -39.9867,59.2255 -72.3381,52.1036 z m -78.5,-0.1411 c -1.925,-0.1897 -10.475,-0.8244 -19,-1.4105 -19.0934,-1.3126 -36.7253,-3.3382 -57,-6.5481 -17.419,-2.7579 -48.5793,-8.2546 -51.2525,-9.0412 -1.6634,-0.4893 -1.7397,-10.3703 -1.5,-194.1974 l 0.2525,-193.6818 16,0 16,0 0.2527,179.1298 c 0.2138,151.5233 0.4671,179.3077 1.6434,180.284 3.563,2.957 47.6303,9.1642 79.1039,11.1423 10.45,0.6568 20.35,1.504 22,1.8826 l 3,0.6884 0,15.9365 0,15.9364 -3,0.1119 c -1.65,0.062 -4.575,-0.043 -6.5,-0.2329 z m 281.2476,-203.129 0.2524,-201.75 13.0994,-0.278 13.0994,-0.278 79.2689,146.028 c 43.5979,80.3154 79.6641,146.028 80.1472,146.028 0.4994,0 0.9877,-62.897 1.1318,-145.75 l 0.2533,-145.75 13.9228,-0.2793 c 10.4676,-0.2101 14.1244,0.038 14.7347,1 0.4465,0.7036 0.8188,81.6617 0.8272,179.9069 0.012,142.6669 -0.2389,178.8385 -1.2476,179.6756 -0.6945,0.5764 -7.1034,2.3963 -14.2419,4.0441 -12.3009,2.8394 -15.4952,2.8867 -15.4952,0.2297 0,-1.5849 -155.8198,-291.5169 -156.8574,-291.8628 -0.8537,-0.2846 -1.1426,40.9834 -1.1426,163.2239 l 0,163.6048 -2.25,0.9114 c -2.3136,0.9372 -18.2849,3.0457 -23.0702,3.0457 l -2.6847,0 0.2525,-201.75 z m -479.2476,167.858 c -59.4028,-15.2253 -97.5285,-25.2141 -99.7529,-26.135 l -2.2528,-0.9327 0.2528,-171.2702 0.2529,-171.2701 65.5,0 65.5,0 0,15 0,15 -48.447,0.2597 c -37.2322,0.1996 -48.6293,0.5469 -49.2347,1.5 -1.029,1.6203 -1.0292,97.86 -2e-4,99.4803 0.6045,0.9517 11.7025,1.3004 47.7347,1.5 l 46.9472,0.26 0,15 0,15 -46.9472,0.26 c -36.0322,0.1996 -47.1302,0.5483 -47.7347,1.5 -1.0134,1.5957 -1.0375,149.8467 -0.025,151.4401 0.9752,1.5341 35.5684,11.3375 72.2065,20.4626 15.675,3.9041 28.8306,7.6021 29.2347,8.2178 1.2909,1.9671 0.9019,30.0829 -0.4347,31.4195 -0.66,0.66 -1.4475,1.1832 -1.75,1.1626 -0.3025,-0.02 -14.275,-3.5551 -31.05,-7.8546 z m 747.2472,-197.858 0.2528,-171.75 15.9247,-0.2763 c 12.0702,-0.2094 16.1208,0.033 16.7347,1 0.4455,0.702 0.8169,29.9638 0.8253,65.0263 0.01,35.0625 0.4014,63.75 0.8733,63.75 0.4719,0 23.3779,-28.4654 50.9023,-63.2566 27.5243,-34.7911 50.9111,-64.0411 51.9707,-65 1.6648,-1.5066 4.123,-1.7434 18.0977,-1.7434 13.2945,0 16.1713,0.2523 16.1713,1.4184 0,0.7802 -23.6154,33.7427 -52.4786,73.25 -28.8632,39.5074 -52.4882,72.3417 -52.5,72.9651 -0.012,0.6234 23.8178,30.7734 52.9546,67 29.1369,36.2266 52.8468,66.2868 52.6887,66.8005 -0.4062,1.3204 -31.7191,14.7591 -33.1289,14.2181 -0.6391,-0.2452 -24.0836,-29.2529 -52.0989,-64.4615 -28.0153,-35.2086 -51.4994,-64.2659 -52.1869,-64.5718 -0.9945,-0.4424 -1.25,16.7121 -1.25,83.934 l 0,84.4901 -2.25,0.9488 c -3.0784,1.2982 -28.4504,8.0083 -30.2808,8.0083 -1.2951,0 -1.4441,-20.9357 -1.222,-171.75 z m -919.1797,148.687 c -7.9378,-2.7002 -14.7934,-5.4781 -15.2346,-6.1732 -0.4413,-0.6951 -0.8092,-34.6763 -0.8176,-75.5138 l -0.015,-74.25 -65.00003,0 -65,0 0,42.441 c 0,26.9815 -0.3613,42.6642 -0.9918,43.0539 -0.5455,0.3372 -8.083,-3.1707 -16.75,-7.7953 l -15.7582,-8.4083 0,-116.8957 0,-116.8956 15.9247,-0.2763 c 12.0702,-0.2094 16.1208,0.033 16.7347,1 0.4455,0.702 0.8169,30.8638 0.8253,67.0263 l 0.015,65.75 65,0 65.00003,0 0.015,-65.75 c 0.01,-36.1625 0.3798,-66.3243 0.8253,-67.0263 0.6139,-0.9673 4.6645,-1.2094 16.7347,-1 l 15.9247,0.2763 0.253,162.75 c 0.2403,154.5607 0.1648,162.7461 -1.5,162.6732 -0.9641,-0.042 -8.2476,-2.2861 -16.1855,-4.9862 z m 1144.1786,-194.687 0.2539,-125.75 15.9247,-0.2763 c 12.0702,-0.2094 16.1208,0.033 16.7347,1 1.0101,1.5917 1.0844,230.8643 0.075,232.3794 -0.998,1.4985 -30.3577,18.3969 -31.9632,18.3969 -1.0335,0 -1.2305,-24.1524 -1.0254,-125.75 z M 801.18937,1460.205 c 0.2345,-0.7036 -16.153,-18.0363 -36.4167,-38.5171 -112.6768,-113.8841 -174.08856,-189.6478 -234.0142,-288.7036 -94.75065,-156.62079 -154.094,-339.46279 -169.28413,-521.57919 -5.52008,-66.1809 -5.69085,-135.3864 -0.49827,-201.9208 6.16998,-79.0582 21.52344,-162.3528 44.14638,-239.5 3.62889,-12.375 6.80861,-23.7375 7.06605,-25.25 l 0.46807,-2.75 -108.49106,0 c -85.59268,0 -108.70218,0.2638 -109.49135,1.25 -1.91527,2.3934 -15.94079,63.0874 -22.70419,98.25 -23.73,123.3719 -30.8008,259.6044 -20.0081,385.5 26.0805,304.2288 146.22219,587.38389 346.75484,817.24649 7.0757,8.1106 13.83301,15.4247 15.01624,16.2534 1.89636,1.3283 19.03311,1.4769 144.59062,1.2535 114.6257,-0.2039 142.5226,-0.5032 142.8658,-1.5327 z m 405.30593,0.7441 c 1.9081,-1.0211 1.9343,-7.2462 1.9343,-458.9286 0,-433.43419 -0.093,-457.98609 -1.7368,-459.63019 -1.6437,-1.6436 -15.6136,-1.7011 -260.25003,-1.0716 -142.1823,0.3658 -317.8717,0.6653 -390.42101,0.6654 l -131.9078,2e-4 0.64342,17.75 c 2.65355,73.2026 16.03944,161.8364 35.83061,237.25 20.8363,79.3961 47.45085,149.9615 84.48413,223.99999 40.99273,81.9544 87.48995,152.6311 148.35345,225.5 34.1538,40.8908 62.5679,71.6293 126.504,136.8527 23.65,24.1262 43.1541,44.2788 43.3424,44.7836 0.1882,0.5048 -4.3118,6.9994 -10,14.4325 -13.2621,17.33 -13.1374,17.1448 -12.3727,18.3821 0.9022,1.4598 362.86863,1.4736 365.59603,0.014 z m 329.6851,0.2104 c 0.9993,-0.6345 1.2003,-133.2413 1,-659.73469 l -0.2508,-658.9405 -131,0 -131,0 -0.2553,658.5 c -0.2397,618.23809 -0.1516,658.57639 1.4411,659.74999 1.3367,0.9849 28.9602,1.2468 130.2553,1.2347 70.7074,-0.01 129.1217,-0.3727 129.8097,-0.8095 z m 485.9992,-0.1744 c 219.5349,-6e-4 273.25,-0.2493 273.25,-1.2647 0,-0.6951 -6.1125,-7.3326 -13.5833,-14.75 -17.9496,-17.8212 -64.2203,-65.534 -82.4176,-84.9861 -85.0574,-90.9228 -144.4283,-171.0209 -197.9077,-267 -11.8901,-21.3392 -37.687,-73.3547 -48.1066,-96.99999 -91.3157,-207.2223 -122.8136,-435.9996 -90.9372,-660.5 8.0077,-56.3975 20.4506,-113.841 36.5625,-168.794 3.5145,-11.9867 6.3899,-22.4492 6.3899,-23.25 0,-1.2682 -19.4091,-1.456 -150.5,-1.456 l -150.5,0 0,659.4167 c 0,526.55219 0.2519,659.53539 1.25,660.00629 0.6875,0.3243 33.2,0.3621 72.25,0.084 39.05,-0.2781 193.9625,-0.5059 344.25,-0.5063 z m 616.9356,-14.7508 c 81.8885,-93.4027 147.8056,-191.5584 203.6493,-303.25 90.0063,-180.01929 139.8111,-373.05769 148.7396,-576.49999 1.3193,-30.0614 0.7036,-116.0287 -1.0098,-141 -5.4103,-78.849 -14.1004,-143.422 -28.496,-211.744 -3.7739,-17.911 -13.6065,-59.4433 -15.8042,-66.756 l -1.3524,-4.5 -108.4016,-0.2545 c -59.6208,-0.14 -108.7018,0.085 -109.0688,0.5 -0.367,0.415 1.3116,7.2795 3.7303,15.2545 43.1584,142.3058 59.6405,295.8203 47.7776,445 -17.5049,220.1299 -94.6011,431.13899 -223.1691,610.80429 -46.7063,65.269 -99.4538,125.7949 -185.0289,212.3142 -18.2884,18.4902 -33.2516,33.9027 -33.2516,34.25 0,0.3473 64.9696,0.6315 144.377,0.6315 l 144.3769,0 12.9317,-14.75 z m -289.6096,-93 c 50.9154,-51.3965 81.2703,-84.6732 111.5161,-122.25 93.8369,-116.581 168.3469,-260.14119 209.942,-404.49999 52.5183,-182.2692 59.307,-373.2312 19.8545,-558.5 -7.4938,-35.1913 -19.2924,-79.4567 -29.5193,-110.75 l -4.9839,-15.25 -17.6927,-0.039 c -9.731,-0.022 -27.5174,-0.4334 -39.5253,-0.9154 -21.1293,-0.848 -22.0152,-0.9676 -27.5,-3.7109 -7.367,-3.6847 -11.1933,-9.3124 -19.265,-28.3346 -7.7866,-18.350599 -13.2993,-29.084799 -16.4636,-32.057499 -2.1582,-2.0275 -2.6645,-2.1425 -3.9015,-0.8862 -2.5761,2.6163 -3.9615,16.0216 -18.5444,179.443699 -6.7995,76.1974 -7.9759,86.0774 -11.2193,94.2207 -3.5021,8.7926 -9.9609,12.2628 -22.8443,12.2737 -8.0967,0.01 -16.3859,-3.7252 -19.1956,-8.6425 -4.5415,-7.9481 -4.9703,-12.7664 -12.7569,-143.3519 -8.066,-135.268999 -10.8695,-179.736999 -11.6319,-184.499999 -0.5915,-3.695 -0.7008,-3.8094 -1.4341,-1.5 -0.9249,2.913 -1.1151,8.6021 -12.9031,385.999999 -4.939,158.125 -9.447,296.725 -10.0177,308 -2.1225,41.9296 -4.0929,47.0794 -19.1728,50.1078 -10.4341,2.0955 -21.5198,-1.9731 -25.068,-9.2003 -3.1983,-6.5144 -5.1333,-25.097 -7.748,-74.4075 -0.5541,-10.45 -6.6351,-139.6 -13.5133,-287 -21.3077,-456.625599 -24.3418,-519.9934 -25.1139,-524.5 -0.5008,-2.923 -0.7224,-3.1703 -1.3446,-1.5 -1.174,3.1521 -2.4771,22.489 -16.51,245 -13.5467,214.802 -13.6156,215.7115 -17.2165,227.1851 -2.9298,9.3354 -8.626,13.3664 -19.9239,14.0994 -8.1262,0.5272 -15.6417,-1.4518 -20.2547,-5.3334 -3.9373,-3.313 -7.525,-11.9989 -10.5125,-25.4511 -1.4047,-6.325 -8.4291,-44.575 -15.6099,-85 -21.7009,-122.1688 -28.7007,-158.949999 -31.5451,-165.757599 -3.0462,-7.2906 -6.9154,-1.7771 -14.567,20.7576 -8.9102,26.240999 -14.2265,35.934299 -21.4641,39.135899 -7.6273,3.3739 -22.0707,4.0611 -99.2126,4.7206 -65.3409,0.5585 -75.4156,0.8417 -76.2617,2.1435 -1.3857,2.132 -11.0413,32.5317 -16.4695,51.8523 -39.7879,141.619 -52.1762,289.7398 -36.3942,435.1477 20.0401,184.641 84.728,362.0803 189.0262,518.49999 38.0524,57.0685 73.1432,100.974 125.8648,157.4816 20.7323,22.2211 77.1636,79.0184 78.5092,79.0184 0.6244,0 15.2891,-14.2875 32.5881,-31.75 z m 40.385,-700.74999 c 0.8498,-26.95 5.3583,-171.175 10.0188,-320.5 10.0519,-322.0663985 10.2307,-326.5269985 13.5909,-339.2044985 2.1477,-8.1027005 9.8235,-12.7955005 20.9293,-12.7955005 10.535,0 18.1431,4.3087 21.4076,12.1236005 3.332,7.9766 3.6912,12.3913 11.0987,136.3763985 9.4431,158.0569 11.9725,196.3122 13.0512,197.3909 0.9487,0.9486 1.4857,-0.8447 2.3892,-7.9781 1.4281,-11.2749 6.272,-63.0638 14.0217,-149.9128 7.9883,-89.523099 9.4336,-102.853099 12.0807,-111.423499 3.2422,-10.4971 9.8413,-14.7462 22.8577,-14.7179 19.5751,0.043 28.2854,8.6551 41.6087,41.1414 6.6588,16.2362 9.9995,22.518499 14.6674,27.582699 6.1129,6.6316 9.9492,7.4744 37.0671,8.1427 20.029,0.4935 22.75,0.377 22.75,-0.9743 0,-0.8442 -2.1917,-7.321 -4.8705,-14.393 -51.5692,-136.141399 -125.9681,-259.1675 -221.2428,-365.8473 -30.3904,-34.0285 -102.7556,-108.5108 -105.4263,-108.5108 -2.5042,0 -76.4132,76.3441 -104.9912,108.4504 -80.8499,90.8315 -143.2061,187.457801 -193.9548,300.549601 -13.8858,30.9439 -31.5144,75.267599 -31.5144,79.236599 l 0,2.0872 59.25,-0.6477 c 57.2949,-0.6264 78.7571,-1.568 85.434,-3.748 7.3187,-2.3897 14.5278,-14.5057 20.1872,-33.928099 8.1279,-27.8936 11.469,-34.0151 21.2263,-38.8908 5.4422,-2.7196 7.2358,-3.1064 14.3122,-3.0872 16.9759,0.046 23.3892,7.0694 28.7439,31.478 1.0859,4.95 7.1362,38.024999 13.4451,73.499999 22.6045,127.1065 31.0779,171.6586 33.513,176.2088 1.4933,2.7902 2.5785,2.1303 3.2336,-1.9666 1.3579,-8.4918 4.841,-60.7738 18.6367,-279.742199 11.7296,-186.173601 12.2101,-191.904201 16.758,-199.861701 2.9368,-5.1387 10.1876,-8.1173 19.76,-8.1173 6.5327,0 8.9074,0.4566 12.9476,2.4895 6.3304,3.1852 8.1271,6.7014 9.9872,19.5454 2.7237,18.8068 2.6445,17.2865 17.5777,337.4441 21.8446,468.3307 24.7735,528.8366 25.7044,531 1.0619,2.4678 2.1125,-16.7527 3.7441,-68.5 z m -1182.068,-179.0818 c 0.7935,-2.0678 0.7935,-327.7686 0,-329.8364 -0.5519,-1.4384 -33.4171,-1.5818 -362.42813,-1.5818 l -361.8212,0 -2.1339,5.7033 c -9.67868,25.8687 -25.4973,85.22 -34.55825,129.6624 -12.7498,62.5355 -22.3689,142.8734 -22.43608,187.3843 l -0.0155,10.25 391.393,0 c 355.97676,0 391.44786,-0.1431 391.99996,-1.5818 z M 423.07802,112.48431 c 1.23562,-3.3 4.33803,-11.85 6.89424,-18.999999 24.64366,-68.9308 60.73963,-144.7299 100.15178,-210.312101 50.40371,-83.8723 108.27243,-158.1427 191.82033,-246.1879 32.5362,-34.2876 98.8244,-100.9954 100.3197,-100.9545 1.7078,0.047 37.858,46.2212 39.6054,50.5879 0.865,2.1616 -2.2872,5.5993 -39.5284,43.1077 -54.7327,55.1257 -84.5531,86.944 -117.8628,125.7589 -53.982,62.904 -98.1522,125.9519 -136.96368,195.500001 -12.57437,22.5326 -38.10179,74.207 -48.65945,98.5 -10.75149,24.7389 -26.42557,64.765499 -26.42557,67.482399 l 0,2.0176 357.393,0 c 338.67663,0 357.42803,-0.091 358.06083,-1.7401 0.3672,-0.957 0.5823,-131.938999 0.4779,-291.0709 -0.1183,-180.2442 0.1658,-289.6865 0.7535,-290.2742 0.5631,-0.5631 13.8186,-0.8368 32.8791,-0.6791 l 31.9357,0.2643 0.5,291.5 0.5,291.5 131,0 131,0 0,-378 0,-378 -6,-0.32119 c -3.3,-0.17666 -14.325,0.17171 -24.5,0.77415 -100.5544,5.95361 -188.564,22.2271 -343.4671,63.50909 -19.7819,5.27192 -36.4549,9.3981 -37.0512,9.1693 -1.8932,-0.72651 -25.8159,-59.69715 -24.6787,-60.83435 1.7906,-1.79057 113.3036,-30.90132 158.2893,-41.3218 88.9353,-20.60099 156.6258,-31.08043 236.9077,-36.67667 25.1096,-1.75032 123.3339,-1.74572 147.5,0.007 84.6684,6.14052 151.0719,16.63338 245.3451,38.76863 50.6249,11.88665 145.9867,36.89005 147.7968,38.75157 0.8609,0.88531 -1.7568,8.18931 -10.6347,29.67436 -6.4771,15.675 -12.391,29.2661 -13.1419,30.20245 -1.2684,1.58158 -3.0692,1.24098 -25.3653,-4.7975 -161.1261,-43.63794 -266.2961,-62.85458 -366.7513,-67.01273 l -16.7513,-0.69339 0.2513,378.40057 0.2513,378.4006 154.2997,0.2532 154.2997,0.2531 1.3334,-3.2531 c 0.7334,-1.7893 4.1327,-11.1282 7.5541,-20.753199 29.543,-83.111 72.3742,-169.6249 122.1381,-246.704501 44.8906,-69.5313 94.3277,-131.1074 168.8384,-210.2955 23.4031,-24.8723 101.2001,-103 102.564,-103 1.3804,0 77.5408,76.6016 103.7383,104.3395 79.211,83.8682 129.8731,147.7649 177.7453,224.1781 46.0027,73.429201 87.1729,158.356901 114.3966,235.982401 3.0862,8.799999 5.9936,16.674999 6.4608,17.499999 0.7456,1.3165 14.1654,1.5311 109.6861,1.7545 59.8601,0.1399 109.1923,-0.1013 109.6271,-0.5361 1.3994,-1.3994 -14.9731,-53.654999 -28.8935,-92.218399 -79.9114,-221.376291 -211.6387,-417.789891 -385.3292,-574.549631 -234.7916,-211.90499 -531.9434,-338.99235 -848.4589,-362.87304 -40.4136,-3.04915 -70.1366,-3.84043 -122.5,-3.26116 -50.0965,0.55419 -59.763,0.9632 -99.5,4.21008 -141.1713,11.53501 -281.7088,44.67146 -412.5,97.26081 -219.73713,88.35326 -411.51843,227.76842 -563.60636,409.71285 C 375.40498,-282.18789 293.10444,-140.69239 237.1844,8.4843115 222.38212,47.972011 200.55636,115.76241 201.92973,117.98461 c 0.41449,0.6706 37.19055,0.9233 109.76253,0.7541 l 109.13919,-0.2544 2.24657,-6 z"
         id="hto_loho"
         style="fill:#008000;fill-opacity:1">
        <desc
           id="desc3788">HTO logo - musta</desc>
        <title
           id="title3786">HTO logo</title>
      </path>
    </g>
  </g>
</svg>
