<?xml version="1.0" encoding="utf-8"?>
<!-- Generator: Adobe Illustrator 22.1.0, SVG Export Plug-In . SVG Version: 6.00 Build 0)  -->
<svg version="1.1" id="Layer_1" xmlns="http://www.w3.org/2000/svg" xmlns:xlink="http://www.w3.org/1999/xlink" x="0px" y="0px"
	 viewBox="0 0 24 24" style="enable-background:new 0 0 24 24;" xml:space="preserve">
<style type="text/css">
	.st0{fill:none;}
</style>
<path class="st0" d="M0,0h24v24H0V0z"/>
<path d="M4.5,17h15v-1.7h-15V17z M4.5,12.8h15v-1.7h-15V12.8z M4.5,7v1.7h15V7H4.5z"/>
<g id="layer1" transform="translate(0,-302.36205)">
	<g id="g3008" transform="matrix(0.20759666,0,0,0.20759666,49.153473,572.02634)">
		<path d="M-125.1-1247l-3.5,0l-0.1-0.4c-0.3-2.4-0.8-4.6-1.5-6.9c-0.4-1.4-1.2-3.7-1.7-4.9c-0.1-0.2-0.1-0.4-0.1-0.4
			c0,0,0.1-0.1,0.5-0.3c1.4-0.7,5.4-3.1,5.4-3.1c0,0-6.6-11.4-6.6-11.5c0,0-3.8,2.1-5.2,3c-0.4,0.2-0.7,0.4-0.7,0.4
			c-0.1,0-0.1,0-0.7-0.7c-2.3-2.9-5-5.6-7.9-7.9c-0.4-0.3-0.7-0.6-0.7-0.6c0,0,0.2-0.3,0.4-0.7c0.6-1,0.8-1.4,2-3.4
			c0.6-1,1-1.8,1-1.8c0-0.1-11.4-6.6-11.5-6.6c-0.1,0-2.6,4.5-3.2,5.6c-0.1,0.2-0.2,0.3-0.2,0.3c0,0-0.3-0.1-0.5-0.2
			c-2.3-0.9-5.1-1.8-7.6-2.4c-1.3-0.3-3.2-0.6-4.2-0.8c-0.2,0-0.3-0.1-0.4-0.1c0,0,0-0.8,0-3.5v-3.4l-6.6,0l-6.6,0l0,3.5l0,3.5
			l-0.3,0c-3.9,0.5-7.9,1.6-11.6,3.1c-0.4,0.1-0.7,0.3-0.7,0.3c0,0-0.2-0.3-0.4-0.6c-0.7-1.2-3-5.3-3-5.3c0,0-11.4,6.6-11.5,6.6
			c0,0,0.3,0.6,1,1.7c1.3,2.2,1.5,2.5,2,3.4c0.3,0.4,0.5,0.8,0.5,0.8s-0.2,0.2-0.4,0.4c-3,2.3-5.8,5.1-8.2,8.2
			c-0.3,0.4-0.6,0.7-0.6,0.7c0,0-0.3-0.2-0.6-0.4c-0.3-0.2-0.9-0.5-1.2-0.7c-0.7-0.4-3.8-2.2-4-2.3l-0.1-0.1l-0.2,0.3
			c-0.4,0.6-6.3,11-6.4,11.1l-0.1,0.1l0.1,0.1c0.5,0.3,4.2,2.4,5.2,3c0.4,0.2,0.6,0.3,0.6,0.4c0,0-0.1,0.3-0.2,0.5
			c-1.2,2.9-2.1,6.1-2.7,9.3c-0.1,0.7-0.4,2-0.4,2.5c0,0.1,0,0.2-0.1,0.3l0,0.1l-3.4,0c-2.2,0-3.4,0-3.4,0c0,0,0,1,0,6.6
			c0,3.6,0,6.6,0,6.6c0,0,1.6,0,3.4,0c2.7,0,3.4,0,3.4,0c0,0,0.1,0.2,0.1,0.5c0.5,3.7,1.6,8,3.1,11.6c0.1,0.3,0.2,0.5,0.2,0.5
			c0,0-0.1,0.1-0.3,0.2c-0.9,0.4-5.6,3.1-5.6,3.2c0,0,6.5,11.4,6.6,11.5c0,0,0.3-0.1,1.6-0.9c2.1-1.2,2.7-1.6,3.6-2.1
			c0.4-0.2,0.7-0.4,0.7-0.4c0,0,0.2,0.2,0.3,0.3c1.2,1.6,2.6,3.1,4.3,4.8c1.5,1.5,2.9,2.7,4.3,3.8c0.2,0.2,0.4,0.3,0.4,0.3
			c0,0-0.1,0.3-0.3,0.6c-0.5,0.8-1.1,1.7-2.2,3.7c-0.8,1.4-1,1.7-0.9,1.7c0,0,2.6,1.5,5.8,3.3c4.6,2.7,5.7,3.3,5.8,3.2
			c0-0.1,2.1-3.6,2.5-4.3c0.1-0.3,0.4-0.7,0.6-1s0.3-0.6,0.3-0.6c0,0,0.2,0,0.4,0.1c0.6,0.2,2,0.8,2.7,1c2.9,1,5.8,1.7,8.9,2.1
			c0.4,0.1,0.7,0.1,0.7,0.1c0,0,0,1.1,0,3.4c0,1.9,0,3.4,0,3.4c0,0.1,0.5,0.1,6.7,0l6.6,0l0-3.4c0-3,0-3.4,0.1-3.5
			c0,0,0.4-0.1,0.8-0.1c2.4-0.3,5-1,7.6-1.7c1.1-0.4,2.3-0.8,4-1.4c0.2-0.1,0.2-0.1,0.2,0c0,0,0.2,0.4,0.4,0.8
			c0.5,0.9,0.6,1.1,1.9,3.3c0.6,1,1.1,1.8,1.1,1.8c0,0,11.4-6.5,11.5-6.6c0,0-0.1-0.4-1-1.9c-1.1-2-1.5-2.6-2.1-3.5l-0.3-0.6
			l0.1-0.1c0.1,0,0.4-0.3,0.7-0.6c1.5-1.2,2.6-2.2,4.1-3.7c1.5-1.5,2.5-2.6,3.7-4.1c0.3-0.3,0.5-0.7,0.6-0.7l0.1-0.1l0.7,0.5
			c1.4,0.9,5.2,3.1,5.2,3c0.1-0.1,6.6-11.4,6.6-11.5c0-0.1-0.2-0.2-1.9-1.2c-2-1.1-2.6-1.5-3.5-2c-0.3-0.2-0.5-0.3-0.5-0.3
			c0,0,0.1-0.3,0.2-0.6c1.2-2.9,2.1-6.2,2.7-9.3c0.2-0.8,0.4-2.1,0.4-2.5c0-0.1,0-0.2,0.1-0.2c0,0,1.6,0,3.5,0h3.4v-13.3
			L-125.1-1247z M-130.9-1238.3c-0.3,6.8-2,13.3-5,19.3c-1.9,3.7-4.1,7-6.8,10.2h0l-0.4,0.5h0c-0.4,0.6-0.8,1.1-1.4,1.5
			c-0.7,0.7-1.9,1.8-2.6,2.5c-5.2,4.6-11.6,8-18.2,9.9c-3.6,1-7.3,1.6-11,1.8c-7.4,0.3-14.6-1-21.3-4c-4.7-2.1-9.1-4.9-13-8.5
			c-0.7-0.6-2.5-2.4-2.5-2.4c0,0,0.1,0,0.2,0c-0.2-0.2-0.4-0.5-0.6-0.8c-0.2,0-0.3,0-0.3,0c0,0-0.3-0.3-0.5-0.5
			c-6.7-7.7-10.7-17.2-11.6-27.4c-0.4-4.2-0.1-8.8,0.7-12.9c0.2-1.2,0.7-3.2,0.8-3.3c0,0,0.1,0,0.2,0c0-0.3,0.1-0.6,0.1-0.8
			c0,0-0.1,0-0.1,0c0-0.1,0.7-2.3,1.2-3.7c1.9-5,4.6-9.7,8-13.8c5.1-6.1,11.5-10.8,18.9-13.7c4.4-1.8,9.1-2.9,13.8-3.3
			c1.3-0.1,1.7-0.1,3.3-0.1c1.8,0,2.8,0,4.1,0.1c10.6,0.8,20.6,5.1,28.4,12.2c5.8,5.3,10.2,11.8,12.9,19.3c0.5,1.3,1,3,1,3.1
			c0,0,0,0-0.1,0c0.1,0.3,0.1,0.5,0.2,0.8l0.1,0l0,0.2c0.1,0.2,0.4,1.6,0.5,2.2c0.5,2.3,0.8,4.5,1,7.1
			C-130.9-1242.2-130.9-1239.3-130.9-1238.3z"/>
	</g>
</g>
</svg>
